inDegrees=no
num_controls=7
num_derivatives=13
num_iterations=107
num_multipliers=7
num_parameters=0
num_slacks=7
num_states=26
objective=0.431166
objective_accelerations=0.049743
objective_balance=0.006868
objective_effort=0.031242
objective_height=0.342137
objective_ligament=0.001176
solver_duration=1370.895029
status=Solve_Succeeded
success=true
DataType=double
version=3
OpenSimVersion=4.5
endheader
time	/jointset/ground_pelvis/pelvis_tilt/value	/jointset/ground_pelvis/pelvis_tx/value	/jointset/ground_pelvis/pelvis_ty/value	/jointset/hip_l/hip_flexion_l/value	/jointset/hip_l/hip_adduction_l/value	/jointset/hip_l/hip_rotation_l/value	/jointset/back/lumbar_extension/value	/jointset/patellofemoral_l/patellar_flexion_l/value	/jointset/knee_l/knee_flexion_l/value	/jointset/knee_l/knee_adduction_l/value	/jointset/knee_l/knee_rotation_l/value	/jointset/ankle_l/ankle_angle_l/value	/jointset/subtalar_l/subtalar_angle_l/value	/jointset/ground_pelvis/pelvis_tilt/speed	/jointset/ground_pelvis/pelvis_tx/speed	/jointset/ground_pelvis/pelvis_ty/speed	/jointset/hip_l/hip_flexion_l/speed	/jointset/hip_l/hip_adduction_l/speed	/jointset/hip_l/hip_rotation_l/speed	/jointset/back/lumbar_extension/speed	/jointset/patellofemoral_l/patellar_flexion_l/speed	/jointset/knee_l/knee_flexion_l/speed	/jointset/knee_l/knee_adduction_l/speed	/jointset/knee_l/knee_rotation_l/speed	/jointset/ankle_l/ankle_angle_l/speed	/jointset/subtalar_l/subtalar_angle_l/speed	/forceset/tau_hip_flexion_l	/forceset/tau_hip_adduction_l	/forceset/tau_hip_rotation_l	/forceset/tau_knee_flexion_l	/forceset/tau_ankle_angle_l	/forceset/tau_subtalar_angle_l	/forceset/tau_lumbar_extension	lambda_cid13_p0	lambda_cid13_p1	lambda_cid13_p2	lambda_cid13_p3	lambda_cid13_p4	lambda_cid13_p5	lambda_cid14_p0	/jointset/ground_pelvis/pelvis_tilt/accel	/jointset/ground_pelvis/pelvis_tx/accel	/jointset/ground_pelvis/pelvis_ty/accel	/jointset/hip_l/hip_flexion_l/accel	/jointset/hip_l/hip_adduction_l/accel	/jointset/hip_l/hip_rotation_l/accel	/jointset/back/lumbar_extension/accel	/jointset/patellofemoral_l/patellar_flexion_l/accel	/jointset/knee_l/knee_flexion_l/accel	/jointset/knee_l/knee_adduction_l/accel	/jointset/knee_l/knee_rotation_l/accel	/jointset/ankle_l/ankle_angle_l/accel	/jointset/subtalar_l/subtalar_angle_l/accel	gamma_cid13_p0	gamma_cid13_p1	gamma_cid13_p2	gamma_cid13_p3	gamma_cid13_p4	gamma_cid13_p5	gamma_cid14_p0
1.5	-0.3386241033706003	-0.03157723233682284	0.7653752681683734	1.173335361688026	-0.3055694144886222	0.008665425221254226	-0.3380428291978904	0.8146635309737471	0.8146635309737892	-0.1735282864788068	0.1686023997975032	0.1609702708430964	-0.0206764104530613	0.4321776971239038	0.1597440774470616	0.5031844986939412	-2.099032661711576	-0.01239922401489145	-0.6983306656953197	0.5742094652641673	-2.082584456408722	-2.082584456408462	0.005221784339721341	-0.03746978823573942	-0.5390332826512085	-0.1019006388496541	-0.1929275628953531	0.02831075807760794	-0.025949718503271	-0.2539167410235038	0.1005808966942608	0.03132640065284178	0.1912437979483338	-6.075381013010969	-14.9650199687053	4.751884959946262	-2.049795157265644	-606.0573886933654	-51.88358270781148	-20.65988829168586	0.4977314760328968	0.5313570324599032	-0.42194689030888	-1.272104008134167	0.6765706724998659	-0.352432654235008	1.547466614584156	-1.307289099202326	-1.307289099202344	0.04164733849207884	-0.08879633920830177	-0.5528298062645309	0.6949795364758983	4.167374645058702e-07	4.969907530549694e-07	-2.525772219496939e-06	-2.748842770192987e-07	5.001722289301851e-07	2.839159509426947e-07	4.030526841324965e-07
1.51	-0.3342775947995478	-0.02995341021411517	0.770384978272704	1.152283627642406	-0.3056606819787778	0.001667473439058823	-0.332224777502816	0.7937746717753652	0.7937746717752101	-0.1734778925149946	0.1682231204614823	0.1555526471757742	-0.02166211639122061	0.4370626843173596	0.1649960819399489	0.4986503787619588	-2.111002124416916	-0.005833464139660647	-0.7011734055596425	0.5893037229613705	-2.094874672783413	-2.094874672783152	0.004858036869458315	-0.0383775425766499	-0.5443992303464883	-0.09522248625291654	-0.1866492525357228	0.02780983057837211	-0.02581099547988826	-0.2510186044601385	0.1019657848781485	0.03109699227195188	0.1859643393194985	-5.403320265717467	-15.09155519950246	4.895983775155997	-2.188164456842419	-601.6542282713493	-52.11677393965942	-21.93049715301358	0.4747231430153459	0.5184244834422951	-0.4851049690158701	-1.112509518279768	0.6500439805588878	-0.236856119310062	1.475832728888451	-1.14306892565601	-1.143068925655746	-0.07524700051475239	-0.08995061037208868	-0.5146540369034213	0.6571633470830752	4.482872179923825e-07	5.68751996172069e-07	-2.645576101407416e-06	-2.845341995026385e-07	5.366461856573492e-07	3.66840054838394e-07	4.260904531505168e-07
1.52	-0.329884068196157	-0.02827780758133084	0.7753461550928402	1.131121570546425	-0.3056855988030762	-0.005356238035135731	-0.3262586977544493	0.7727722742094261	0.772772274209073	-0.173431108268031	0.1678351264562834	0.1500841286743505	-0.02258045475825046	0.4415813035913504	0.1701001794623956	0.493477841855064	-2.121097271784092	0.0008709091565379563	-0.703482604095131	0.6038150759225758	-2.105292129920243	-2.10529212991998	0.004499840970025299	-0.0392127220711469	-0.5492122494715164	-0.0884271246237632	-0.1803709421760923	0.02730890307913628	-0.0256722724565162	-0.248120467896771	0.1033506730620369	0.03086758389106213	0.1806848806906633	-4.735274473343226	-15.21984675426106	5.043173670671736	-2.347455551696775	-597.337462289286	-52.4384508404291	-23.19540357504874	0.4244578921399172	0.5017756383717851	-0.5496302852913441	-0.897240940501425	0.7042933566934262	-0.2457243884681874	1.430885667384609	-0.9327372516299072	-0.9327372516299064	0.04275765265807971	-0.0742813699256083	-0.4422440922141546	0.7184213429590554	4.976702396913856e-07	6.301326072805097e-07	-2.864251549954829e-06	-3.09003592279278e-07	5.90834137669439e-07	4.603639286238573e-07	4.625084913437667e-07
1.53	-0.3254471500263827	-0.02655193303216418	0.7802525136182082	1.109867704150141	-0.3056431415628839	-0.01239987460985319	-0.3201505604142844	0.7516748463647877	0.7516748463645252	-0.1733887161719568	0.1674388881371834	0.1445701672775575	-0.0234306704520587	0.4457356030377412	0.175046750618047	0.4876944878362804	-2.129359744609463	0.00763531822894433	-0.7051588300236032	0.6177107731349097	-2.1138743797905	-2.113874379790361	0.003983342378711813	-0.04002649470311748	-0.5534796451366399	-0.08160332781126044	-0.1740867673980169	0.02664113191574835	-0.02547931484258404	-0.2454136766726472	0.1048915196533441	0.03044194624823195	0.1754004848199192	-4.036867470194808	-15.2611250178448	5.168371275320093	-2.487906026457776	-593.2358988010519	-52.64891438878778	-24.45279519068369	0.4009604758102421	0.4868267416226951	-0.6074536817412789	-0.7432400156884886	0.6651598913241871	-0.1152016045724667	1.353668901838307	-0.7732180222824656	-0.7732180223010268	-0.09818444144116034	-0.08300126530912372	-0.4039388291034632	0.6665423923668382	5.6600110886616e-07	6.804837968797503e-07	-3.187978038053983e-06	-3.49218672242548e-07	6.638432096717621e-07	5.651500579171947e-07	5.131430655356979e-07
1.54	-0.320970679961159	-0.02477744699394886	0.7850980854590748	1.088540715113179	-0.3055325111902055	-0.01945759942576278	-0.3139065146712598	0.730501146187935	0.7305011461877617	-0.1733513552270786	0.1670348968806682	0.139016541619025	-0.02421221146934771	0.4494916826809935	0.179822477272127	0.4813205049547251	-2.135721799920177	0.01450553565374837	-0.7063002523335039	0.6309967564944644	-2.120546596363109	-2.120546596363093	0.003493610730794742	-0.04076330955414158	-0.5571451018194431	-0.07469218931991951	-0.1678025926199421	0.02597336075235996	-0.02528635722865486	-0.2427068854485224	0.1064323662446517	0.03001630860540144	0.1701160889491748	-3.340659299617031	-15.30603076149433	5.298732759832565	-2.66192916474711	-589.1993259066271	-52.9638548696457	-25.70150288382182	0.34481393151222	0.4676067380574946	-0.6677560578456887	-0.5171574375698412	0.7254550271729583	-0.1387636647538356	1.308942896828763	-0.5507305921002495	-0.5507305921002528	0.0481110413373623	-0.05888981373631559	-0.3218562957500605	0.7358896787266836	5.965567340668612e-07	8.007730702172874e-07	-3.297237506766466e-06	-3.522860655153784e-07	7.038671797450697e-07	6.724739913609667e-07	5.384439227036259e-07
1.55	-0.3164586128629811	-0.02295605388365875	0.7898770922674089	1.067159332469566	-0.3053528518981387	-0.02652429901745092	-0.3075327190091756	0.7092701081078623	0.7092701081077037	-0.1733188654750731	0.1666240736177198	0.1334292721513578	-0.02492441044660961	0.4528537449108437	0.1844281480423864	0.4743930452418357	-2.140252946030247	0.02142510613659374	-0.7069102398885444	0.6436594501980137	-2.125355322650564	-2.125355322650461	0.002966510829511081	-0.04142197747467654	-0.5602043346249145	-0.06775163362622011	-0.1615365845488856	0.02497073498797747	-0.02504952719205388	-0.2403810318830181	0.1083458644967925	0.02945078142206259	0.1648779965264973	-2.551899382571227	-15.30337749527582	5.418071524794021	-2.884005236987004	-585.5352084444661	-53.26242960215901	-26.94085844617432	0.3217563528557168	0.4527896391913389	-0.7182712468569417	-0.3757563190688201	0.6753680132978698	-0.002204571109886535	1.229493748469888	-0.4001955761392958	-0.4001955761262175	-0.1087783695985003	-0.07184250146497989	-0.2822845129090422	0.6727180489995847	5.835887086017847e-07	1.001643179166336e-06	-3.159393670533449e-06	-3.125528632535741e-07	7.058865758566873e-07	7.827219165432827e-07	5.345559319960738e-07
1.56	-0.3119149543456766	-0.02108945558712985	0.7945842184148447	1.045741705740584	-0.3051039649103516	-0.03359311613873555	-0.3010353841817852	0.6880001323791015	0.6880001323789571	-0.1732927782948296	0.1662061662315131	0.1278145448076434	-0.02556728796007291	0.4558099665060634	0.188863514519886	0.4669443727750945	-2.142970616994047	0.02835107479774002	-0.7067237582528133	0.6557045895556374	-2.128334126100865	-2.128334126100674	0.002213096378737439	-0.04218013420532695	-0.5626366770289202	-0.06082789656019983	-0.155270576477828	0.02396810922359685	-0.0248126971554766	-0.2380551783175094	0.1102593627489346	0.02888525423872601	0.1596399041038203	-1.763993057151008	-15.30452894846877	5.542535600943069	-3.14398902371038	-581.9182969585031	-53.66202566144498	-28.1688357404908	0.2636458045861419	0.4335458795055427	-0.7719986086160461	-0.1544624083157554	0.7267346628331398	0.0205301734004654	1.185432027643598	-0.1847460246692862	-0.1847460246692883	0.002848131439366067	-0.07878757575941137	-0.1964782154569397	0.7325259531908589	4.908571191654518e-07	1.267741154534904e-06	-2.642452053802478e-06	-2.06408332220218e-07	6.2601051251282e-07	8.420823663807693e-07	4.809963703935812e-07
1.57	-0.3073438619284524	-0.01917941790114603	0.7992143041202359	1.024306349929537	-0.3047852530461632	-0.04065875321317953	-0.294420385397083	0.6667102369740656	0.6667102369741263	-0.1732726599941274	0.1657818543911699	0.1221789697301908	-0.02614032099426083	0.4583455444028575	0.1931093576357109	0.4589958519213198	-2.143804058764164	0.03538746926367591	-0.7062821085956046	0.6672016005273065	-2.129338758350907	-2.129338758350731	0.001783131650774504	-0.04269551488760084	-0.5643732395651809	-0.0537849594840524	-0.149446998454781	0.02305063563842966	-0.0245185728485163	-0.2353153790248454	0.1114444276079665	0.02822136335942316	0.1547296880609868	-1.235144643104548	-15.21208058630356	5.645769256457516	-3.159106487011677	-578.634024324425	-53.8896488748851	-29.36970812389617	0.2390895881708388	0.4149221033999123	-0.8177485138428845	-0.003284803567687156	0.6914876228149777	0.07453158020790275	1.117800603313155	-0.01245209417005954	-0.01245209417230041	-0.06980409991441126	-0.03965968130826864	-0.1464554980586035	0.6890806029313988	2.984210747650493e-07	1.615373962927871e-06	-1.651638211449069e-06	-1.724964022242306e-08	4.437651248495972e-07	8.378334720372197e-07	3.653473451724134e-07
1.58	-0.3027492985710702	-0.01722795806884819	0.8037626106790724	1.002871559752346	-0.3043962980804468	-0.04771626394738637	-0.2876932235083869	0.6454194691927297	0.6454194691929951	-0.173257618405706	0.1653520394706333	0.116529186982306	-0.02664314405406634	0.4605041545374414	0.1971479437826887	0.4505885434641587	-2.142857490222602	0.04239969510325809	-0.7050984902053224	0.6781372103543588	-2.128508601360883	-2.128508601360722	0.001197753922800626	-0.04328075024375014	-0.5654782111153593	-0.04678590168371623	-0.1436234204317346	0.02213316205326259	-0.02422444854156455	-0.2325755797321797	0.112629492466999	0.02755747248012062	0.1498194720181527	-0.714784323540777	-15.12028868289158	5.751555688931398	-3.169422415298363	-575.4948290289146	-54.18695004581585	-30.53500045903736	0.1882522521441092	0.3920944857361416	-0.8637561292932853	0.2015396540201382	0.7219009375623953	0.1689239200151531	1.073151798720237	0.1822118233439497	0.1822118233439547	-0.0282344685628214	-0.09275851053449315	-0.07016001824046614	0.723750098028604	1.772476560419293e-07	1.853926354668252e-06	-1.041426022011237e-06	1.028447946461122e-07	3.315659857094119e-07	8.4709616829088e-07	2.954285609951181e-07
